<svg xmlns:xlink="http://www.w3.org/1999/xlink" xmlns="http://www.w3.org/2000/svg" version="1.1" style="font-family:'lucida grande', 'lucida sans unicode', arial, helvetica, sans-serif;font-size:12px;" width="540" height="750"><desc>Created with Highcharts 4.0.1</desc><defs><clipPath id="highcharts-31"><rect x="0" y="0" width="540" height="750"/></clipPath></defs><rect x="0" y="0" width="540" height="750" strokeWidth="0" fill="#FFFFFF" class=" highcharts-background"/><g class="highcharts-series-group"><g class="highcharts-series highcharts-tracker" visibility="visible" transform="translate(20,121) scale(1 1)" style=""><g stroke="#fdbf6f" stroke-width="1" stroke-linejoin="round" transform="translate(0,0)"><path fill="rgba(228,166,86,1)" d="M 248.02011562946691 116.39072883933099 C 250.9723338111368 116.3000960070571 253.4670002805608 116.26146895037795 256.4219993368626 116.26063528087133 L 256.4219993368626 134.8221882870182 C 253.4670002805608 134.82302195652483 250.9723338111368 134.861649013204 248.02011562946691 134.95228184547787 Z"/><path fill="rgba(228,166,86,1)" d="M 256.4219993368626 116.26063528087133 L 256.4219993368626 134.8221882870182 L 256.5 273.0615530061469 L 256.5 254.5 Z"/><path fill="rgba(228,166,86,1)" d="M 248.02011562946691 116.39072883933099 L 248.02011562946691 134.95228184547787 L 256.5 273.0615530061469 L 256.5 254.5 Z"/><path fill="rgba(228,166,86,1)" d="M 256.5 254.5 C 256.5 254.5 256.5 254.5 256.5 254.5 L 256.5 273.0615530061469 C 256.5 273.0615530061469 256.5 273.0615530061469 256.5 273.0615530061469 Z"/><path fill="#fdbf6f" d="M 248.02011562946691 116.39072883933099 C 250.9723338111368 116.3000960070571 253.4670002805608 116.26146895037795 256.4219993368626 116.26063528087133 L 256.5 254.5 C 256.5 254.5 256.5 254.5 256.5 254.5 Z"/></g><g stroke="#64E572" stroke-width="1" stroke-linejoin="round" transform="translate(0,0)"><path fill="rgba(75,204,89,1)" d="M 149.13428597304835 138.97326402195284 C 180.03829902099508 124.61281577116206 211.0732178335862 117.52525701356448 248.01816246984737 116.39078880807389 L 248.01816246984737 134.95234181422077 C 211.0732178335862 136.08681001971135 180.03829902099508 143.17436877730893 149.13428597304835 157.53481702809972 Z"/><path fill="rgba(75,204,89,1)" d="M 248.01816246984737 116.39078880807389 L 248.01816246984737 134.95234181422077 L 256.5 273.0615530061469 L 256.5 254.5 Z"/><path fill="rgba(75,204,89,1)" d="M 149.13428597304835 138.97326402195284 L 149.13428597304835 157.53481702809972 L 256.5 273.0615530061469 L 256.5 254.5 Z"/><path fill="rgba(75,204,89,1)" d="M 256.5 254.5 C 256.5 254.5 256.5 254.5 256.5 254.5 L 256.5 273.0615530061469 C 256.5 273.0615530061469 256.5 273.0615530061469 256.5 273.0615530061469 Z"/><path fill="#64E572" d="M 149.13428597304835 138.97326402195284 C 180.03829902099508 124.61281577116206 211.0732178335862 117.52525701356448 248.01816246984737 116.39078880807389 L 256.5 254.5 C 256.5 254.5 256.5 254.5 256.5 254.5 Z"/></g><g stroke="#DDDF00" stroke-width="1" stroke-linejoin="round" transform="translate(0,0)"><path fill="rgba(196,198,0,1)" d="M 115.25429714163673 158.92306391171834 C 125.99420359137935 150.98722867147907 136.15108744706728 145.00641617017868 149.13265218364836 138.9740232179737 L 149.13265218364836 157.53557622412058 C 136.15108744706728 163.56796917632556 125.99420359137935 169.54878167762595 115.25429714163673 177.48461691786522 Z"/><path fill="rgba(196,198,0,1)" d="M 149.13265218364836 138.9740232179737 L 149.13265218364836 157.53557622412058 L 256.5 273.0615530061469 L 256.5 254.5 Z"/><path fill="rgba(196,198,0,1)" d="M 115.25429714163673 158.92306391171834 L 115.25429714163673 177.48461691786522 L 256.5 273.0615530061469 L 256.5 254.5 Z"/><path fill="rgba(196,198,0,1)" d="M 256.5 254.5 C 256.5 254.5 256.5 254.5 256.5 254.5 L 256.5 273.0615530061469 C 256.5 273.0615530061469 256.5 273.0615530061469 256.5 273.0615530061469 Z"/><path fill="#DDDF00" d="M 115.25429714163673 158.92306391171834 C 125.99420359137935 150.98722867147907 136.15108744706728 145.00641617017868 149.13265218364836 138.9740232179737 L 256.5 254.5 C 256.5 254.5 256.5 254.5 256.5 254.5 Z"/></g><g stroke="#a6cee3" stroke-width="1" stroke-linejoin="round" transform="translate(0,0)"><path fill="rgba(141,181,202,1)" d="M 94.20433313102933 177.42741565395613 C 100.79548457178836 170.48775398574537 107.07941033993023 164.9636987834249 115.25294548670638 158.92406267444022 L 115.25294548670638 177.4856156805871 C 107.07941033993023 183.52525178957177 100.79548457178836 189.04930699189225 94.20433313102933 195.988968660103 Z"/><path fill="rgba(141,181,202,1)" d="M 115.25294548670638 158.92406267444022 L 115.25294548670638 177.4856156805871 L 256.5 273.0615530061469 L 256.5 254.5 Z"/><path fill="rgba(141,181,202,1)" d="M 94.20433313102933 177.42741565395613 L 94.20433313102933 195.988968660103 L 256.5 273.0615530061469 L 256.5 254.5 Z"/><path fill="rgba(141,181,202,1)" d="M 256.5 254.5 C 256.5 254.5 256.5 254.5 256.5 254.5 L 256.5 273.0615530061469 C 256.5 273.0615530061469 256.5 273.0615530061469 256.5 273.0615530061469 Z"/><path fill="#a6cee3" d="M 94.20433313102933 177.42741565395613 C 100.79548457178836 170.48775398574537 107.07941033993023 164.9636987834249 115.25294548670638 158.92406267444022 L 256.5 254.5 C 256.5 254.5 256.5 254.5 256.5 254.5 Z"/></g><g stroke="#1f78b4" stroke-width="1" stroke-linejoin="round" transform="translate(0,0)"><path fill="rgba(6,95,155,1)" d="M 452 254.5 C 452 272.2886978063559 448.0550601575057 287.3617137969559 439.05202007426976 303.97226478949295 L 439.05202007426976 322.53381779563983 C 448.0550601575057 305.92326680310276 452 290.8502508125028 452 273.0615530061469 Z"/><path fill="rgba(6,95,155,1)" d="M 256.4601818886776 116.26062714530636 L 256.4601818886776 134.82218015145324 L 256.5 273.0615530061469 L 256.5 254.5 Z"/><path fill="rgba(6,95,155,1)" d="M 256.5 254.5 C 256.5 254.5 256.5 254.5 256.5 254.5 C 256.5 254.5 256.5 254.5 256.5 254.5 L 256.5 273.0615530061469 C 256.5 273.0615530061469 256.5 273.0615530061469 256.5 273.0615530061469 C 256.5 273.0615530061469 256.5 273.0615530061469 256.5 273.0615530061469 Z"/><path fill="rgba(6,95,155,1)" d="M 439.05202007426976 303.97226478949295 L 439.05202007426976 322.53381779563983 L 256.5 273.0615530061469 L 256.5 254.5 Z"/><path fill="#1f78b4" d="M 256.4601818886776 116.26062714530636 C 364.4318482411156 116.2450772055833 451.9780050094084 178.12434688964962 451.9999959450588 254.47184434346988 C 452.00512260684536 272.2704411798134 448.0600703436567 287.35247003576245 439.05202007426976 303.97226478949295 L 256.5 254.5 C 256.5 254.5 256.5 254.5 256.5 254.5 C 256.5 254.5 256.5 254.5 256.5 254.5 Z"/></g><g stroke="#AA4643" stroke-width="1" stroke-linejoin="round" transform="translate(0,0)"><path fill="rgba(145,45,42,1)" d="M 89.66892151760578 182.43183347551707 C 91.20944772374058 180.6487462901885 92.55576726079539 179.16318770890868 94.20324316820344 177.42856326147574 L 94.20324316820344 195.99011626762262 C 92.55576726079539 197.72474071505556 91.20944772374058 199.2102992963354 89.66892151760578 200.99338648166395 Z"/><path fill="rgba(145,45,42,1)" d="M 94.20324316820344 177.42856326147574 L 94.20324316820344 195.99011626762262 L 256.5 273.0615530061469 L 256.5 254.5 Z"/><path fill="rgba(145,45,42,1)" d="M 89.66892151760578 182.43183347551707 L 89.66892151760578 200.99338648166395 L 256.5 273.0615530061469 L 256.5 254.5 Z"/><path fill="rgba(145,45,42,1)" d="M 256.5 254.5 C 256.5 254.5 256.5 254.5 256.5 254.5 L 256.5 273.0615530061469 C 256.5 273.0615530061469 256.5 273.0615530061469 256.5 273.0615530061469 Z"/><path fill="#AA4643" d="M 89.66892151760578 182.43183347551707 C 91.20944772374058 180.6487462901885 92.55576726079539 179.16318770890868 94.20324316820344 177.42856326147574 L 256.5 254.5 C 256.5 254.5 256.5 254.5 256.5 254.5 Z"/></g><g stroke="#ff7f00" stroke-width="1" stroke-linejoin="round" transform="translate(0,0)"><path fill="rgba(230,102,0,1)" d="M 79.73841634285071 195.44243256357143 C 82.88020461443902 190.74068565366696 85.83402931454083 186.87064198314803 89.66790232816217 182.4330131529895 L 89.66790232816217 200.99456615913638 C 85.83402931454083 205.4321949892949 82.88020461443902 209.30223865981384 79.73841634285071 214.0039855697183 Z"/><path fill="rgba(230,102,0,1)" d="M 89.66790232816217 182.4330131529895 L 89.66790232816217 200.99456615913638 L 256.5 273.0615530061469 L 256.5 254.5 Z"/><path fill="rgba(230,102,0,1)" d="M 79.73841634285071 195.44243256357143 L 79.73841634285071 214.0039855697183 L 256.5 273.0615530061469 L 256.5 254.5 Z"/><path fill="rgba(230,102,0,1)" d="M 256.5 254.5 C 256.5 254.5 256.5 254.5 256.5 254.5 L 256.5 273.0615530061469 C 256.5 273.0615530061469 256.5 273.0615530061469 256.5 273.0615530061469 Z"/><path fill="#ff7f00" d="M 79.73841634285071 195.44243256357143 C 82.88020461443902 190.74068565366696 85.83402931454083 186.87064198314803 89.66790232816217 182.4330131529895 L 256.5 254.5 C 256.5 254.5 256.5 254.5 256.5 254.5 Z"/></g><g stroke="#50B432" stroke-width="1" stroke-linejoin="round" transform="translate(0,0)"><path fill="rgba(55,155,25,1)" d="M 79.73758115156053 195.44368245966885 L 79.73758115156053 214.00523546581573 L 256.5 273.0615530061469 L 256.5 254.5 Z"/><path fill="rgba(55,155,25,1)" d="M 256.5 254.5 C 256.5 254.5 256.5 254.5 256.5 254.5 C 256.5 254.5 256.5 254.5 256.5 254.5 C 256.5 254.5 256.5 254.5 256.5 254.5 L 256.5 273.0615530061469 C 256.5 273.0615530061469 256.5 273.0615530061469 256.5 273.0615530061469 C 256.5 273.0615530061469 256.5 273.0615530061469 256.5 273.0615530061469 C 256.5 273.0615530061469 256.5 273.0615530061469 256.5 273.0615530061469 Z"/><path fill="rgba(55,155,25,1)" d="M 439.0513204216639 303.97355562473246 L 439.0513204216639 322.53510863087934 L 256.5 273.0615530061469 L 256.5 254.5 Z"/><path fill="rgba(55,155,25,1)" d="M 439.0513204216639 303.97355562473246 C 400.4100698801325 375.26428074066195 287.3541369870433 410.90676687616207 186.53382665668363 383.5832765847168 C 109.2049346289145 362.6262370393553 61.00000000000001 313.0583151877429 61 254.50000000000003 L 61 273.0615530061469 C 61.000000000000014 349.4090520435202 148.52833140807985 411.30092872811696 256.5 411.30092872811696 C 339.31396352822435 411.30092872811696 409.4135908694244 377.2148925653573 439.0513204216639 322.53510863087934 Z"/><path fill="#50B432" d="M 439.0513204216639 303.97355562473246 C 400.4100698801325 375.26428074066195 287.3541369870433 410.90676687616207 186.53382665668363 383.5832765847168 C 85.71351632632394 356.2597862932716 35.307429036804685 276.31716949119703 73.94867957833611 205.02644437526754 C 75.80343802353067 201.60452938494657 77.52356596068019 198.75708479160338 79.73758115156053 195.44368245966885 L 256.5 254.5 C 256.5 254.5 256.5 254.5 256.5 254.5 C 256.5 254.5 256.5 254.5 256.5 254.5 C 256.5 254.5 256.5 254.5 256.5 254.5 Z"/></g></g><g class="highcharts-markers" visibility="visible" transform="translate(20,121) scale(1 1)"/></g><text x="270" text-anchor="middle" class="highcharts-title" style="color:#333333;font-size:16px;fill:#333333;width:456px;" y="25"><tspan style="font-weight:bold; font-size:10pt;">Education Requirements on Advertised Jobs</tspan><tspan x="270" dy="20">The graph below shows the minimum required education</tspan><tspan dy="20" x="270">level on job openings advertised online in Natrona</tspan><tspan dy="20" x="270">County, Wyoming on March 26, 2015 (Jobs De-duplication</tspan><tspan dy="20" x="270">Level 1).</tspan></text><text x="270" text-anchor="middle" class="highcharts-subtitle" style="color:#4d759e;font-size:9px;fill:#4d759e;width:456px;" y="720"><tspan>Job Source: Online advertised jobs data</tspan><tspan x="270" dy="13">Downloaded: 03/27/2015 11:11 PM</tspan></text><g class="highcharts-data-labels highcharts-tracker" visibility="visible" transform="translate(20,121) scale(1 1)" opacity="1" style=""><path fill="none" d="M 447.2946377983285 126.70875395635301 C 442.2946377983285 126.70875395635301 435.7032537522681 131.24236800668194 426.640100688935 137.47608732588424 L 417.57694762560186 143.70980664508653" stroke-width="1" stroke="#1f78b4" transform="translate(0,32.44982744202981)"/><path fill="none" d="M 162.9684744090871 461.89435618296255 C 167.9684744090871 461.89435618296255 171.10928241231238 454.53668501017455 175.42789341674717 444.419887147591 L 179.74650442118195 434.30308928500745" stroke-width="1" stroke="#50B432" transform="translate(0,-34.09602721707172)"/><path fill="none" d="M 53.05724800396766 147.39853324888026 C 58.05724800396766 147.39853324888026 65.09734563575594 151.19814182541666 74.77747987946483 156.4226036181542 L 84.45761412317373 161.64706541089174" stroke-width="1" stroke="#ff7f00" transform="translate(0,27.195940198751295)"/><path fill="none" d="M 67.70882954848594 123.84375 C 72.70882954848594 123.84375 73.41243233963297 137.08964028583117 82.67203346268602 143.02763548976614 L 91.93163458573906 148.96563069370112" stroke-width="1" stroke="#AA4643" transform="translate(0,30.895201234865322)"/><path fill="none" d="M 82.79134765815954 104.875 C 87.79134765815954 104.875 87.07874424083633 118.10832834447677 95.64717556658714 125.00629794544577 L 104.21560689233795 131.90426754641476" stroke-width="1" stroke="#a6cee3" transform="translate(0,35.88952413152891)"/><path fill="none" d="M 107.27541890366032 81.15202566056523 C 112.27541890366032 81.15202566056523 117.39203375408479 87.30184293203075 124.42737917341843 95.75784168029587 L 131.46272459275207 104.21384042856099" stroke-width="1" stroke="#DDDF00" transform="translate(0,44.00163163142823)"/><path fill="none" d="M 160.97324829953578 47.96875 C 165.97324829953578 47.96875 189.73406411262903 47.50106327547604 193.11073213451905 57.969975017865764 L 196.48740015640908 68.43888676025549" stroke-width="1" stroke="#64E572" transform="translate(0,54.48932881518168)"/><path fill="none" d="M 246.64812002813332 29 C 251.64812002813332 29 251.82024880762157 37.05035081937372 252.05692587942002 48.04780434115252 L 252.29360295121847 59.04525786293132" stroke-width="1" stroke="#fdbf6f" transform="translate(0,57.246907256927045)"/><g style="cursor:default;" transform="translate(444,150)"><text x="3" style="font-size:11px;color:#606060;fill:#606060;" y="15"><tspan>30.82 %</tspan></text></g><g style="cursor:default;" transform="translate(109,418)"><text x="3" style="font-size:11px;color:#606060;fill:#606060;" y="15"><tspan>51.2 %</tspan></text></g><g style="cursor:default;" transform="translate(-1,165)"><text x="3" style="font-size:11px;color:#606060;fill:#606060;" y="15"><tspan>1.71 %</tspan></text></g><g style="cursor:default;" transform="translate(14,145)"><text x="3" style="font-size:11px;color:#606060;fill:#606060;" y="15"><tspan>0.68 %</tspan></text></g><g style="cursor:default;" transform="translate(29,131)"><text x="3" style="font-size:11px;color:#606060;fill:#606060;" y="15"><tspan>2.74 %</tspan></text></g><g style="cursor:default;" transform="translate(64,116)"><text x="3" style="font-size:11px;color:#606060;fill:#606060;" y="15"><tspan>3.6 %</tspan></text></g><g style="cursor:default;" transform="translate(107,93)"><text x="3" style="font-size:11px;color:#606060;fill:#606060;" y="15"><tspan>8.56 %</tspan></text></g><g style="cursor:default;" transform="translate(193,77)"><text x="3" style="font-size:11px;color:#606060;fill:#606060;" y="15"><tspan>0.68 %</tspan></text></g></g><g class="highcharts-legend" transform="translate(30,629)"><rect x="0.5" y="0.5" width="479" height="80" strokeWidth="1" rx="5" ry="5" stroke="#909090" stroke-width="1" fill="none" visibility="visible"/><g><g><g class="highcharts-legend-item" transform="translate(8,3)"><text x="21" y="15" style="color:#274b6d;font-size:12px;font-weight:normal;cursor:pointer;width:500;fill:#274b6d;" text-anchor="start"><tspan>No Minimum Education Requirement</tspan></text><rect x="0" y="4" width="16" height="12" fill="#1f78b4"/></g><g class="highcharts-legend-item" transform="translate(250.421875,3)"><text x="21" y="15" style="color:#274b6d;font-size:12px;font-weight:normal;cursor:pointer;width:500;fill:#274b6d;" text-anchor="start"><tspan>High School Diploma or Equivalent</tspan></text><rect x="0" y="4" width="16" height="12" fill="#50B432"/></g><g class="highcharts-legend-item" transform="translate(8,17)"><text x="21" y="15" style="color:#274b6d;font-size:12px;font-weight:normal;cursor:pointer;width:500;fill:#274b6d;" text-anchor="start"><tspan>1 Year of College or a Technical or Vocational School</tspan></text><rect x="0" y="4" width="16" height="12" fill="#ff7f00"/></g><g class="highcharts-legend-item" transform="translate(8,31)"><text x="21" y="15" style="color:#274b6d;font-size:12px;font-weight:normal;cursor:pointer;width:500;fill:#274b6d;" text-anchor="start"><tspan>2 Years of College or a Technical or Vocational School</tspan></text><rect x="0" y="4" width="16" height="12" fill="#AA4643"/></g><g class="highcharts-legend-item" transform="translate(8,45)"><text x="21" y="15" style="color:#274b6d;font-size:12px;font-weight:normal;cursor:pointer;width:500;fill:#274b6d;" text-anchor="start"><tspan>Vocational School Certificate</tspan></text><rect x="0" y="4" width="16" height="12" fill="#a6cee3"/></g><g class="highcharts-legend-item" transform="translate(203.40625,45)"><text x="21" y="15" style="color:#274b6d;font-size:12px;font-weight:normal;cursor:pointer;width:500;fill:#274b6d;" text-anchor="start"><tspan>Associate's Degree</tspan></text><rect x="0" y="4" width="16" height="12" fill="#DDDF00"/></g><g class="highcharts-legend-item" transform="translate(341.8125,45)"><text x="21" y="15" style="color:#274b6d;font-size:12px;font-weight:normal;cursor:pointer;width:500;fill:#274b6d;" text-anchor="start"><tspan>Bachelor's Degree</tspan></text><rect x="0" y="4" width="16" height="12" fill="#64E572"/></g><g class="highcharts-legend-item" transform="translate(8,59)"><text x="21" y="15" style="color:#274b6d;font-size:12px;font-weight:normal;cursor:pointer;width:500;fill:#274b6d;" text-anchor="start"><tspan>Master's Degree</tspan></text><rect x="0" y="4" width="16" height="12" fill="#fdbf6f"/></g></g></g></g><g class="highcharts-tooltip" style="cursor:default;padding:0;white-space:nowrap;" transform="translate(0,-9999)"><path fill="none" d="M 3 0 L 13 0 C 16 0 16 0 16 3 L 16 13 C 16 16 16 16 13 16 L 3 16 C 0 16 0 16 0 13 L 0 3 C 0 0 0 0 3 0" stroke-width="5" stroke="black" stroke-opacity="0.049999999999999996" transform="translate(1, 1)"/><path fill="none" d="M 3 0 L 13 0 C 16 0 16 0 16 3 L 16 13 C 16 16 16 16 13 16 L 3 16 C 0 16 0 16 0 13 L 0 3 C 0 0 0 0 3 0" stroke-width="3" stroke="black" stroke-opacity="0.09999999999999999" transform="translate(1, 1)"/><path fill="none" d="M 3 0 L 13 0 C 16 0 16 0 16 3 L 16 13 C 16 16 16 16 13 16 L 3 16 C 0 16 0 16 0 13 L 0 3 C 0 0 0 0 3 0" stroke-width="1" stroke="black" stroke-opacity="0.15" transform="translate(1, 1)"/><path fill="rgba(249, 249, 249, .85)" d="M 3 0 L 13 0 C 16 0 16 0 16 3 L 16 13 C 16 16 16 16 13 16 L 3 16 C 0 16 0 16 0 13 L 0 3 C 0 0 0 0 3 0" stroke-width="1"/><text x="8" style="font-size:12px;color:#333333;fill:#333333;" y="21"/></g></svg>